<svg id="ClubCollect_logo" data-name="ClubCollect logo" xmlns="http://www.w3.org/2000/svg" viewBox="0 0 505.88 82.8"><defs><style>.cls-1{fill:#2c2b2a;}</style></defs><title>logo-dark</title><path id="c" class="cls-1" d="M14.9,53.52c0,10,6.5,15.57,14.12,15.57a12.62,12.62,0,0,0,12.66-9.3l13.11,4.4C52.32,73.38,43.7,82.79,29,82.79c-16.25,0-29-12.33-29-29.24S12.57,24.3,28.59,24.3c15,0,23.53,9.3,25.88,18.6L41.14,47.38c-1.34-4.59-4.82-9.3-12.21-9.3C21.29,38.06,14.9,43.55,14.9,53.52Z" transform="translate(-0.02 0)"/><path id="l" class="cls-1" d="M58.92,81.19V0h14.9V81.19H58.92Z" transform="translate(-0.02 0)"/><path id="b" class="cls-1" d="M134.06,81.14V0h14.68V32c2.47-3.92,8.52-7.51,16.69-7.51,16.14,0,25.43,12.44,25.43,28.8,0,16.69-10.31,29.13-26,29.13-7.62,0-13.45-3.36-16.36-8.07v6.72H134.06v0ZM162.3,37.89c-7.51,0-13.78,5.49-13.78,15.58s6.27,15.72,13.78,15.72S176,63.59,176,53.5s-6.05-15.61-13.67-15.61h0Z" transform="translate(-0.02 0)"/><path id="c-2" class="cls-1" d="M210.74,53.52c0,10,6.5,15.57,14.12,15.57a12.62,12.62,0,0,0,12.66-9.3l13.11,4.4c-2.47,9.19-11.09,18.6-25.77,18.6-16.25,0-29-12.33-29-29.24s12.55-29.28,28.55-29.28c15,0,23.53,9.3,25.88,18.6L237,47.35c-1.34-4.59-4.82-9.3-12.21-9.3C217.13,38.06,210.74,43.55,210.74,53.52Z" transform="translate(-0.02 0)"/><path id="o" class="cls-1" d="M311.74,53.52c0,16.92-12.44,29.24-28.91,29.24s-28.91-12.33-28.91-29.24,12.44-29.25,28.91-29.25S311.74,36.49,311.74,53.52Zm-14.9,0c0-10.42-6.72-15.69-14-15.69s-14,5.27-14,15.69,6.72,15.69,14,15.69S296.84,63.94,296.84,53.52Z" transform="translate(-0.02 0)"/><path id="l-2" class="cls-1" d="M315.87,81.12V0h14.9V81.12h-14.9Z" transform="translate(-0.02 0)"/><path id="l-3" class="cls-1" d="M335.74,81.12V0h14.9V81.12h-14.9Z" transform="translate(-0.02 0)"/><path id="e" class="cls-1" d="M408.32,65.32c-2.8,9.52-11.54,17.48-25.1,17.48-15.13,0-28.46-10.87-28.46-29.47,0-17.59,13-29,27.12-29,17,0,27.23,10.87,27.23,28.57,0,2.13-.22,4.37-0.22,4.6H369.41c0.34,7.28,6.5,12.55,13.89,12.55,7,0,10.76-3.47,12.55-8.41Zm-13.89-18c-0.22-5.49-3.81-10.87-12.33-10.87a11.93,11.93,0,0,0-12.33,10.87h24.66Z" transform="translate(-0.02 0)"/><path id="c-3" class="cls-1" d="M427.3,53.56c0,10,6.5,15.57,14.12,15.57a12.62,12.62,0,0,0,12.66-9.3l13.11,4.36c-2.47,9.19-11.09,18.6-25.77,18.6-16.25,0-29-12.33-29-29.24S425,24.3,441,24.3c15,0,23.53,9.3,25.88,18.6l-13.33,4.48c-1.34-4.59-4.82-9.3-12.21-9.3C433.69,38.09,427.3,43.58,427.3,53.56Z" transform="translate(-0.02 0)"/><path id="t" class="cls-1" d="M494.81,25.94H505.9V39.19H494.81V62.27c0,4.82,2.24,6.39,6.5,6.39a21.55,21.55,0,0,0,4.59-.45V80.54a22.13,22.13,0,0,1-8.4,1.34c-10.76,0-17.48-6.39-17.48-17V39.19H470V25.94h2.8c5.83,0,8.52-3.81,8.52-8.74V9.47h13.47V25.94Z" transform="translate(-0.02 0)"/><g id="ClubCollect_symbol" data-name="ClubCollect symbol"><path class="cls-1" d="M121.64,26.19h0a7.45,7.45,0,0,0-7.45,7.45h0v4.48c0,7.74,5.39,7.74,5.39,16.36a15.65,15.65,0,1,1-31.29.79q0-.4,0-0.79c0-8.63,5.39-8.63,5.39-16.36V33.64a7.45,7.45,0,0,0-7.45-7.45h0a7.45,7.45,0,0,0-7.45,7.45V57.58a24.74,24.74,0,0,0,2.86,11.61,25.13,25.13,0,0,0,44.61,0,24.73,24.73,0,0,0,2.85-11.64V33.63a7.45,7.45,0,0,0-7.46-7.44h0Z" transform="translate(-0.02 0)"/><circle class="cls-1" cx="103.92" cy="54.47" r="9.42"/></g></svg>