<?xml version="1.0" encoding="utf-8"?>
<!-- Generator: Adobe Illustrator 16.0.0, SVG Export Plug-In . SVG Version: 6.00 Build 0)  -->
<!DOCTYPE svg PUBLIC "-//W3C//DTD SVG 1.1//EN" "http://www.w3.org/Graphics/SVG/1.1/DTD/svg11.dtd">
<svg version="1.1" id="Layer_1" xmlns="http://www.w3.org/2000/svg" xmlns:xlink="http://www.w3.org/1999/xlink" x="0px" y="0px"
	 width="1000px" height="1000px" viewBox="0 0 1000 1000" enable-background="new 0 0 1000 1000" xml:space="preserve">
<g>
	<path d="M985.32,231.742v473.16H13.959v-473.16H985.32 M995.32,221.742H3.959v493.16H995.32V221.742L995.32,221.742z"/>
</g>
<path d="M623.83,373.65h4.319c10.439,0,12.239,3.24,12.239,17.279c0,8.64-0.359,27.718,1.08,34.558h17.278
	c-1.08-6.84-1.08-25.559-1.08-35.277c0-15.839-3.959-20.519-10.438-23.758c4.319-1.8,11.879-6.479,11.879-24.118v-4.32
	c0-20.518-10.439-27.718-28.078-27.718h-24.838v115.191h17.639V373.65z M624.19,325.054h5.039c10.079,0,11.879,5.4,11.879,14.399
	v3.96c0,12.599-3.6,16.199-12.959,16.199h-3.959V325.054z"/>
<polygon points="392.369,409.647 362.851,409.647 362.851,373.29 388.769,373.29 388.769,356.731 363.211,356.731 363.211,326.854 
	389.849,326.854 389.849,310.295 345.213,310.295 345.213,426.206 390.209,426.206 "/>
<path d="M350.972,493.881h9c6.119,0,7.919,1.439,7.919,6.479v1.079c0,3.24-0.36,5.76,0.36,7.2h6.119c-0.36-1.44-0.36-4.68-0.36-7.2
	V500c0-6.479-3.239-7.919-5.399-8.64c4.319-1.439,6.479-4.319,6.479-8.639c0-6.12-4.68-9.72-12.239-9.72h-17.638v35.638h5.759
	V493.881z M351.332,477.682h10.439c5.039,0,7.559,1.8,7.559,5.399c0,3.96-2.52,5.76-7.919,5.76h-10.079V477.682z"/>
<polygon points="452.484,410.007 423.326,410.007 423.326,310.295 405.688,310.295 405.688,425.846 451.044,425.846 "/>
<path d="M426.206,472.643l-15.119,35.637h6.12l4.319-10.079h16.919l4.319,10.079h6.479l-15.839-35.637H426.206z M423.326,493.16
	c3.239-8.279,5.76-14.038,6.479-16.559c0.72,2.521,2.88,7.199,6.839,16.559H423.326z"/>
<polygon points="512.959,425.846 525.198,384.089 536.717,425.846 556.875,425.846 535.997,364.651 555.436,310.655 
	536.717,310.655 526.278,348.812 515.479,310.655 495.681,310.655 515.119,367.17 494.601,425.846 "/>
<rect x="465.083" y="310.295" width="17.639" height="115.551"/>
<path d="M519.438,489.921c0-9.72-6.84-17.278-18.358-17.278h-15.119v35.637h15.119C511.159,508.279,519.438,501.439,519.438,489.921
	z M491.721,503.6v-26.277H500c7.92,0,12.959,4.679,12.959,12.599c0,8.279-4.319,13.679-13.319,13.679H491.721z"/>
<rect x="568.035" y="310.295" width="17.638" height="115.551"/>
<path d="M568.395,472.643l-15.119,35.637h6.12l4.319-10.079h16.919l4.319,10.079h6.479l-15.839-35.637H568.395z M565.515,493.16
	c3.24-8.279,5.76-14.038,6.479-16.559c0.72,2.521,2.88,7.199,6.84,16.559H565.515z"/>
<path d="M651.188,500.36v1.079c0,3.24-0.359,5.76,0.36,7.2h5.76c-0.36-1.44-0.36-4.68-0.36-7.2V500c0-6.479-3.239-7.919-5.399-8.64
	c4.319-1.439,6.479-4.319,6.479-8.639c0-6.12-4.68-9.72-12.239-9.72h-17.639v35.638h5.76v-14.759h9.359
	C649.388,493.881,651.188,495.32,651.188,500.36z M634.27,488.841v-11.159h10.438c5.04,0,7.56,1.8,7.56,5.399
	c0,3.96-2.52,5.76-7.919,5.76H634.27z"/>
<path d="M521.958,635.35c0,12.959-10.079,23.758-22.318,23.758c-12.599,0-22.317-10.439-22.317-23.758
	c0-12.959,22.317-39.237,22.317-39.237S521.958,622.03,521.958,635.35z"/>
</svg>
