<?xml version="1.0" encoding="UTF-8" standalone="no"?>
<svg width="196px" height="70px" viewBox="0 0 196 70" version="1.1" xmlns="http://www.w3.org/2000/svg" xmlns:xlink="http://www.w3.org/1999/xlink">
    <!-- Generator: Sketch 41.2 (35397) - http://www.bohemiancoding.com/sketch -->
    <title>Artboard</title>
    <desc>Created with Sketch.</desc>
    <defs>
        <rect id="path-1" x="0" y="0" width="58.648855" height="70.5" rx="3"></rect>
        <mask id="mask-2" maskContentUnits="userSpaceOnUse" maskUnits="objectBoundingBox" x="0" y="0" width="58.648855" height="70.5" fill="white">
            <use xlink:href="#path-1"></use>
        </mask>
        <rect id="path-3" x="16" y="2" width="42" height="2" rx="1"></rect>
        <mask id="mask-4" maskContentUnits="userSpaceOnUse" maskUnits="objectBoundingBox" x="0" y="0" width="42" height="2" fill="white">
            <use xlink:href="#path-3"></use>
        </mask>
    </defs>
    <g id="Page-1" stroke="none" stroke-width="1" fill="none" fill-rule="evenodd">
        <g id="Artboard">
            <path d="M107.575082,52.2914541 C107.636559,52.3895879 107.936464,52.864166 108.232253,53.3413088 C109.337666,55.1266062 109.730241,57.1232507 109.787139,59.1677617 C109.849535,61.4194895 108.86498,63.2280038 107.060527,64.5887553 C105.971888,65.4099628 104.775207,65.592908 103.467432,65.2489641 C102.631382,65.0286572 101.905465,64.606368 101.248292,64.0737844 C100.427714,63.4090578 99.6559101,62.6802074 99.0809705,61.7881862 C97.750026,59.7242473 96.4256742,57.6608687 95.6243323,55.3073057 C94.4108437,51.7428673 93.9708738,48.0755694 94.0108299,44.3332747 C94.0136608,44.0637959 94.2751999,43.8037624 94.5569144,43.796793 C96.5490215,43.7510405 98.4752585,44.0825431 100.322248,44.8380318 C100.515864,44.9171027 100.700966,45.0274209 100.873817,45.1464127 C103.500951,46.9529335 105.937576,48.9435666 107.575082,52.2914541 Z M108.880934,51.7032278 C107.167559,48.1561855 104.556783,45.937379 101.663193,43.9903105 C100.587091,43.2664219 99.3705408,42.9128323 98.1069376,42.7224275 C96.9929562,42.554983 95.8703194,42.4442972 94.7519401,42.3055352 C94.4687801,42.270343 94.2418437,42.0102171 94.2649692,41.7208254 C94.3044319,41.2308417 94.3323927,40.7366128 94.42095,40.2544224 C94.8283236,38.0310484 95.4792035,35.880034 96.4936576,33.8552117 C97.9622124,30.9237268 99.987655,28.4228635 102.50032,26.3161439 C103.174804,25.7504783 103.508793,25.7389432 104.177985,26.2500274 C105.128824,26.9757232 106.063482,27.7229179 107.005296,28.4599461 C107.226723,28.6332301 107.440948,28.8182663 107.675563,28.9719165 C108.100516,29.2492241 108.699225,28.9694473 108.827951,28.4450992 C108.861723,28.3088704 108.895027,28.1718953 108.916268,28.0331002 C109.268147,25.7369178 109.476997,23.4266371 109.57218,21.1067848 C109.598236,20.4783292 109.546115,19.8404919 109.46374,19.2158039 C109.332586,18.2209857 108.722442,17.7825703 107.681564,17.8787819 C107.401625,17.9043604 107.121964,17.9494805 106.845155,18.0016434 C104.144909,18.5095203 101.445551,19.0204753 98.74652,19.5327829 C98.6089103,19.5588878 98.4754131,19.607333 98.3406541,19.6487823 C97.7214266,19.8401766 97.470884,20.5063419 97.8658934,20.980789 C98.1335964,21.3026685 98.4369776,21.6017916 98.7576619,21.8704146 C99.5131098,22.5025813 100.298018,23.0987455 101.053607,23.7303059 C101.844681,24.3911121 101.868584,24.7829736 101.108576,25.4055772 C99.7366989,26.5293974 98.6142524,27.8728632 97.5063915,29.2445935 C95.798001,31.3589905 94.6458101,33.7659118 93.7776122,36.2998571 C93.3021916,37.6872706 93.0979558,39.1671477 92.7860411,40.6088175 C92.7116644,40.9509062 92.6845585,41.3045191 92.6519356,41.6543072 C92.6004034,42.2088845 92.3170663,42.5644789 91.7747598,42.7042979 C91.5022038,42.774044 91.2280116,42.8411782 90.950922,42.8904028 C88.2040608,43.377008 85.7431959,44.5642482 83.3258484,45.8981716 C79.4604398,48.0308821 76.1602165,50.8640207 73.0756128,53.9716023 C72.6881903,54.3619795 72.419567,54.8739086 72.1175629,55.3433466 C71.9784858,55.5597376 72.1326497,56.0084175 72.3657313,56.0566639 C72.5584151,56.0968846 72.7924832,56.0952275 72.9676907,56.0187096 C73.1499589,55.9393475 73.2952981,55.7595218 73.4358657,55.6044609 C76.8671006,51.8097356 80.7960555,48.6542418 85.3796297,46.3369555 C87.20728,45.4126055 89.0755988,44.59884 91.1215964,44.278763 C91.32953,44.246182 91.5368562,44.2093101 91.7457244,44.1823725 C92.0740127,44.1401485 92.3328469,44.3025691 92.3605461,44.5991945 C92.4251927,45.2977101 92.500079,45.9976258 92.5165652,46.6981423 C92.5954581,50.0348304 93.2013166,53.2786167 94.4348618,56.3719117 C95.5036726,59.0511319 96.787577,61.6336434 98.7825626,63.7911087 C99.455381,64.5188772 100.184549,65.1746872 100.999152,65.7352222 C101.884401,66.3445946 102.863841,66.7240465 103.932658,66.8584199 C105.162926,67.0130495 106.322766,66.8011848 107.376696,66.131317 C109.961043,64.4894066 111.341733,62.1325502 111.246121,59.0797044 C111.17601,56.823965 110.711028,54.6145941 109.473496,52.6491185 C109.211413,52.2324228 108.950592,51.8144213 108.880934,51.7032278 Z" id="arrow" fill="#3B5BDB" transform="translate(91.657778, 42.386168) scale(-1, 1) rotate(219.000000) translate(-91.657778, -42.386168) "></path>
            <g id="website" transform="translate(2.000000, 0.000000)">
                <use id="Rectangle-3" stroke="#3B5BDB" mask="url(#mask-2)" stroke-width="6" fill="#FFFFFF" xlink:href="#path-1"></use>
                <rect id="Rectangle-7" fill="#EAEDFB" x="6.01526718" y="10" width="46.6183206" height="4.5"></rect>
                <rect id="Rectangle-8" fill="#EBEFFF" x="6.01526718" y="17.5" width="36.0916031" height="16.5"></rect>
                <g id="Group-2" transform="translate(6.015267, 37.000000)" fill="#3B5BDB">
                    <rect id="Rectangle-208-Copy-2" x="0" y="0" width="36.0916031" height="3"></rect>
                    <rect id="Rectangle-208" x="0" y="6" width="36.0916031" height="1.5"></rect>
                    <rect id="Rectangle-208-Copy" x="0" y="9" width="36.0916031" height="1.5"></rect>
                    <rect id="Rectangle-208-Copy-3" x="0" y="12" width="36.0916031" height="1.5"></rect>
                    <rect id="Rectangle-209" x="0" y="15" width="28.5725191" height="1.5"></rect>
                </g>
                <g id="Group-2-Copy" transform="translate(6.015267, 56.500000)" fill="#3B5BDB">
                    <rect id="Rectangle-208" x="0" y="0" width="36.0916031" height="1.5"></rect>
                    <rect id="Rectangle-208-Copy" x="0" y="3" width="36.0916031" height="1.5"></rect>
                    <rect id="Rectangle-209" x="0" y="6" width="28.5725191" height="1.5"></rect>
                </g>
                <rect id="Rectangle-9" fill="#EAEFFF" x="45.1145038" y="17.5" width="7.51908397" height="47"></rect>
            </g>
            <g id="envelope" transform="translate(125.000000, 0.000000)">
                <rect id="Rectangle-12" stroke="#3B5BDB" stroke-width="3" x="0" y="23.5" width="67.6717557" height="45" rx="3"></rect>
                <rect id="Rectangle" stroke="#3B5BDB" stroke-width="3" fill="#FFFFFF" x="9" y="1" width="49" height="53" rx="2"></rect>
                <path d="M3.02581525,24.4586882 C1.91108218,24.8985366 1.1278626,25.9856676 1.1278626,27.257094 L1.1278626,64.742906 C1.1278626,66.400431 2.47205171,67.75 4.13019302,67.75 L63.5415627,67.75 C65.2075401,67.75 66.5438931,66.4036782 66.5438931,64.742906 L66.5438931,27.257094 C66.5438931,25.9416824 65.6973218,24.8202217 64.5191018,24.4133203 L33.7456107,50.4141176 L3.02581525,24.4586882 Z" id="Combined-Shape" fill="#FFFFFF"></path>
                <polyline id="Path-2" stroke="#3B5BDB" stroke-width="3" points="1.50381679 25 33.4599237 52 66 25"></polyline>
                <path d="M0.751908397,68 L24.8129771,46.25" id="Path-3" stroke="#3B5BDB" stroke-width="3"></path>
                <path d="M42.3549618,68 L66.4160305,46.25" id="Path-3-Copy" stroke="#3B5BDB" stroke-width="3" transform="translate(54.385496, 57.125000) scale(1, -1) translate(-54.385496, -57.125000) "></path>
                <path d="M33.0839695,51.75 L61.6564885,28.5 L33.0839695,51.75 Z" id="Path-4" fill="#FFFFFF"></path>
                <g id="Group-2" transform="translate(15.038168, 7.000000)" fill="#3B5BDB">
                    <rect id="Rectangle-208-Copy-2" x="0" y="0" width="36.0916031" height="3"></rect>
                    <rect id="Rectangle-208" x="0" y="6" width="36.0916031" height="1.5"></rect>
                    <rect id="Rectangle-208-Copy" x="0" y="9" width="36.0916031" height="1.5"></rect>
                    <rect id="Rectangle-208-Copy-3" x="0" y="12" width="36.0916031" height="1.5"></rect>
                    <rect id="Rectangle-209" x="0" y="15" width="28.5725191" height="1.5"></rect>
                </g>
                <g id="Group-2-Copy" transform="translate(15.038168, 26.500000)" fill="#3B5BDB">
                    <rect id="Rectangle-208" x="0" y="0" width="36.0916031" height="1.5"></rect>
                    <rect id="Rectangle-208-Copy" x="0" y="3" width="36.0916031" height="1.5"></rect>
                    <rect id="Rectangle-208-Copy-3" x="0" y="6" width="36.0916031" height="1.5"></rect>
                    <rect id="Rectangle-209" x="0" y="9" width="28.5725191" height="1.5"></rect>
                </g>
            </g>
            <rect id="Rectangle-13" fill="#3B5BDB" x="4" y="1" width="55" height="5"></rect>
            <circle id="Oval-2" fill="#FFFFFF" cx="6" cy="3" r="1"></circle>
            <circle id="Oval-2-Copy" fill="#FFFFFF" cx="9.5" cy="3" r="1"></circle>
            <circle id="Oval-2-Copy-2" fill="#FFFFFF" cx="13" cy="3" r="1"></circle>
            <use id="Rectangle-14" stroke="#FFFFFF" mask="url(#mask-4)" stroke-width="2" xlink:href="#path-3"></use>
        </g>
    </g>
</svg>