<svg width="617" height="488" viewBox="0 0 617 488" xmlns="http://www.w3.org/2000/svg">
  <title>
    yala head
  </title>
  <g fill="none" fill-rule="evenodd">
    <path d="M472.681 77.501C433.979 35.393 378.446 9 316.746 9 199.802 9 105 103.802 105 220.746c0 81.463 46.005 152.177 113.449 187.591 3.054-5.561 7.349-10.694 13.015-15.018 12.901-9.845 23.934-11.524 31.951-8.553l4.617-29.924c-24.805-53.29-20.606-90.51-14.413-110.341l1.944-33.893 76.511-39.247s.05 5.19-1.355 13.432c3.831-1.863 7.654-3.66 11.463-5.378-4.248-5.97-5.916-10.489-5.916-10.489s68.63-65.525 136.415-91.425" fill="#FDFADD"/>
    <path d="M490.662 118c-5.185 39-34.185 126-28.185 138 6 12 35.37 16.738 28.185 45.369-7.185 28.631-56.917 79.134-55.417 112.634-96 34-214.268-9.503-222.245-212.987" fill="#BAE3DC"/>
    <path d="M261.156 227.666056c26.337-20.429 54.03-36.184 81.026-48.359-4.248-5.97-5.916-10.489-5.916-10.489s69.268-66.135 137.357-91.784c-22.906-27.802-50.61-45.051-90.662-45.034-20.209.009-118.1-.942-170.307 67.058-43.629 56.827-47.644 121.697-37.814 170.399-1.815 2.067-16.411 2.787-18.676 4.722l-47.245-29.542-3.919 18.421 36.051 30.803c-1.126 2.395.756 1.288.95 4.341 1.907 29.902 26.282 51.934 46.444 51.934h.05c3.115-.006 6.031 1.516 7.666 4.168 9.479 15.379 20.229 29.495 31.561 42.059 1.175-1.091 2.42-2.144 3.742-3.152 12.901-9.845 23.934-11.525 31.951-8.553l4.617-29.924c-38.655-83.045-6.876-127.068-6.876-127.068" fill="#E7D4B8"/>
    <path d="M420.215051 228.594232s.141.207.404.596c.129.215.289.532.475.888.155.339.358.735.512 1.186.341.9.7 2.011.948 3.292.26 1.28.448 2.726.546 4.289.103 1.562.12 3.241.05 4.993-.059 1.754-.206 3.583-.41 5.452-.402 3.739-1.057 7.642-1.757 11.455-.169.932-.338 1.864-.506 2.792l-.249 1.439-.202 1.308c-.262 1.746-.46 3.493-.545 5.119-.093 1.629-.079 3.177.098 4.511.159 1.346.484 2.476.897 3.248.411.787.867 1.215 1.504 1.522.647.246 1.449.295 2.141.19.691-.1 1.277-.287 1.674-.417.401-.149.615-.228.615-.228l.074-.027c.577-.214 1.219.081 1.433.659.143.387.057.803-.188 1.1 0 0-.174.209-.531.59-.379.355-.922.924-1.831 1.45-.887.539-2.169 1.109-3.911 1.114-.863-.014-1.826-.182-2.758-.583-.928-.404-1.815-1.017-2.539-1.761-1.476-1.493-2.418-3.374-3.037-5.295-.632-1.938-.927-3.953-1.062-5.994-.12-2.048-.055-4.096.149-6.179.05-.52.117-1.079.184-1.57l.21-1.445c.17-1.087.335-1.994.526-2.988.356-1.948.769-3.865 1.161-5.74.411-1.857.816-3.685 1.208-5.454.376-1.746.74-3.434 1.085-5.035.323-1.592.611-3.088.832-4.462.443-2.747.634-5.011.583-6.557-.005-.393-.042-.726-.048-1.033-.027-.274-.034-.5-.065-.714-.083-.463-.127-.709-.127-.709-.132-.737.358-1.442 1.095-1.575.543-.097 1.07.146 1.362.573" fill="#A399CA"/>
    <path d="M339.541681 181.848l146.336-23.848s-6.991 41.561-24.244 78.56c-45.02 1.727-68.906-7.754-99.853-29.689-1.921-1.361-29.866-24.945-29.613-22.605 7.02 65.04-30.394 88.518-28.164 107.202 1.715 14.366 8.85 28.446 11.876 38.357 2.067 6.768-1.194 12.701-1.194 12.701s2.893 7.279 6.027 9.855c13.99 11.5 32.739 81.133 101.894 56.168 2.852 19.76-29.017 28.756-131.155-14.869-.002-.001-.005-.003-.006-.005-37.91-48.927-64.799-131.062-34.118-164.734 45.942-50.42 68.308-49.302 82.161-43.074l-.867-2.49c-.237-.684.205-1.413.92-1.529" fill="#B2ABD3"/>
    <path d="M339.541681 181.848l146.336-23.848s-6.991 41.561-24.244 78.56c-45.02 1.727-68.906-7.754-99.853-29.689-1.921-1.361-29.866-24.945-29.613-22.605 7.02 65.04-30.394 88.518-28.164 107.202 1.715 14.366 8.85 28.446 11.876 38.357 2.067 6.768-1.194 12.701-1.194 12.701s2.893 7.279 6.027 9.855c13.99 11.5 32.739 81.133 101.894 56.168 2.852 19.76-29.017 28.756-131.155-14.869-.002-.001-.005-.003-.006-.005-37.91-48.927-64.799-131.062-34.118-164.734 45.942-50.42 68.308-49.302 82.161-43.074l-.867-2.49c-.237-.684.205-1.413.92-1.529z"/>
    <path d="M333.026406 344.940675s-.374-.138-1.125-.32c-.739-.165-1.818-.413-3.134-.453-1.311-.05-2.862.011-4.447.42-1.577.417-3.189 1.124-4.563 2.173-.689.52-1.289 1.145-1.855 1.772-.26.335-.527.659-.769.995-.224.352-.464.684-.667 1.033-.191.358-.398.697-.562 1.05-.153.359-.303.71-.449 1.051-.246.705-.502 1.356-.654 1.993-.083.314-.162.615-.238.902-.051.293-.1.572-.146.834-.095.521-.168.976-.201 1.359-.084.756-.133 1.188-.133 1.188-.074.666-.674 1.145-1.34 1.07-.395-.044-.724-.273-.911-.592l-.558-.965s-.077-.133-.188-.38c-.096-.245-.291-.619-.428-1.083-.163-.468-.344-1.05-.45-1.717-.069-.337-.108-.69-.16-1.072-.032-.381-.031-.777-.045-1.201-.026-.84.1-1.759.27-2.733.1-.491.256-.978.396-1.491.154-.514.392-1.013.606-1.535.476-1.031 1.11-2.068 1.897-3.036.801-.967 1.748-1.859 2.807-2.619 1.066-.746 2.228-1.356 3.417-1.778.591-.211 1.186-.399 1.784-.503.593-.136 1.175-.219 1.753-.263 1.146-.082 2.241-.037 3.237.136.998.168 1.904.435 2.701.76 1.6.644 2.764 1.517 3.51 2.225.381.326.645.674.832.881.183.219.284.367.275.36.425.128.666.576.539 1.001-.128.425-.576.666-1.001.538" fill="#AEDDD4"/>
    <path d="M323.751237 347.597464s.168.055.493.16c.183.066.32.088.651.227.311.131.672.282 1.081.454 1.454.661 3.417 1.774 5.6 3.396 2.161 1.635 4.584 3.72 7.117 6.218 2.534 2.501 5.255 5.352 8.131 8.455 2.863 3.111 5.925 6.44 9.23 9.78 3.267 3.37 6.793 6.756 10.628 9.801 3.83 3.022 7.924 5.808 12.303 7.586 2.179.916 4.418 1.55 6.669 1.949 2.251.417 4.532.513 6.816.34 2.281-.177 4.576-.598 6.838-1.316 1.13-.358 2.255-.765 3.367-1.235.549-.246 1.122-.474 1.65-.728.448-.213.898-.446 1.374-.717 1.855-1.053 3.523-2.411 4.692-3.769 1.182-1.374 1.722-2.652 1.768-3.551.003-.059.018-.119.013-.177l.002-.088.002-.044.002-.023-.007-.113-.045-.983c-.025-.7-.049-1.396-.073-2.089-.034-1.416-.032-2.763-.003-4.122.08-2.703.266-5.337.561-7.888.602-5.101 1.609-9.875 2.954-14.182 1.36-4.297 2.96-8.163 4.802-11.394 1.835-3.234 3.766-5.89 5.629-7.852 1.838-1.982 3.498-3.328 4.692-4.15.572-.437 1.068-.705 1.377-.91.316-.197.479-.299.479-.299 1.031-.643 2.389-.328 3.032.703.546.876.402 1.988-.286 2.697l-.097.099s-.457.47-1.262 1.372c-.807.899-1.89 2.316-3.078 4.226-1.163 1.928-2.396 4.395-3.477 7.376-1.04 2.999-2.063 6.46-2.7 10.375-.672 3.898-1.138 8.191-1.253 12.747-.063 2.276-.061 4.616.061 6.996.059 1.182.123 2.404.226 3.579.057.601.115 1.205.173 1.812l.105.979.055.718c.023.27.019.54.023.811.01 2.175-.487 4.3-1.253 6.152-.764 1.871-1.79 3.483-2.91 4.925-2.272 2.86-4.954 5.007-7.857 6.788-.718.433-1.49.862-2.291 1.264-.717.368-1.439.658-2.162.989-1.454.63-2.958 1.193-4.499 1.694-3.081.994-6.349 1.684-9.686 1.917-6.683.541-13.516-.833-19.309-3.445-5.845-2.575-10.816-6.087-15.108-9.785-4.274-3.731-7.944-7.623-11.248-11.358-3.262-3.776-6.146-7.41-8.786-10.71-2.624-3.313-4.955-6.336-7.096-8.863-2.126-2.545-4.004-4.638-5.621-6.171-1.609-1.528-2.904-2.545-3.793-3.105-.186-.113-.346-.221-.486-.316-.117-.092-.384-.205-.512-.278-.305-.155-.463-.235-.463-.235l-.005-.003c-1.786-.911-2.495-3.097-1.584-4.883.822-1.612 2.686-2.346 4.354-1.803" fill="#AEDDD4"/>
    <path d="M256.094 220.41C214.869 75.116 143 100.001 143 100.001L181.511 61s83.978-.007 119.472 129.635l-44.889 29.775z" fill="#F23580"/>
    <path d="M332.438 172s.753 74.805-80.438 107.725l3.927-68.477L332.438 172z" fill="#953782"/>
    <path d="M332.438 172s.753 74.805-80.438 107.725l3.927-68.477L332.438 172z" stroke="#82226F"/>
    <path d="M433.409 108.915359C385.497 3.64035943 301 9.33435943 301 9.33435943s18.835-5.624 66.878 6.21999997c28.737 7.085 88.537 29.021 119.245 79.799l-53.714 13.5619996z" fill="#F23580"/>
    <path d="M220.011 283.416c0 24.53-16.344 44.416-36.506 44.416-20.161 0-36.505-19.886-36.505-44.416 0-24.53 16.344-44.416 36.505-44.416 20.162 0 36.506 19.886 36.506 44.416" fill="#AEDDD4"/>
    <path d="M183.578093 237s-13.083 53.785 10.785 89.625c26.56-19.265 41.523-61.68-10.785-89.625" fill="#B2ABD3"/>
    <path d="M196.268128 281.587313c1.763 9.311-2.6 17.955-9.746 19.309-7.145 1.353-14.367-5.098-16.131-14.408-1.763-9.311 2.6-17.956 9.746-19.309 7.146-1.353 14.368 5.097 16.131 14.408" fill="#F23580"/>
    <path d="M44.984 180.499c0 12.426-8.279 22.499-18.492 22.499C16.279 202.998 8 192.925 8 180.499 8 168.073 16.279 158 26.492 158c10.213 0 18.492 10.073 18.492 22.499" fill="#AEDDD4"/>
    <path d="M480.39 271.53463s58.842-35.267 74.384-83.512c8.146-25.291-80.857 6.8-121.94 16.366-77.112 17.955-96.834-35.606-96.834-35.606S485.518 26.0226301 561.146 78.6476301C662.578 149.22863 570.92 244.99063 486.628 277.82563" fill="#953782"/>
    <path d="M480.39 271.53463s58.842-35.267 74.384-83.512c8.146-25.291-80.857 6.8-121.94 16.366-77.112 17.955-96.834-35.606-96.834-35.606S485.518 26.0226301 561.146 78.6476301C662.578 149.22863 570.92 244.99063 486.628 277.82563" stroke="#82226F"/>
    <path d="M31.2286857 158s-15.193 27.545-1.527 44.667c14.72-6.937 24.436-26.223 1.527-44.667" fill="#B2ABD3"/>
    <path d="M176.790894 276.938725c.546-1.081 1.763-2.952 3.782-3.335.229-.043.463-.064.702-.064 3.116 0 6.995 3.624 8.103 9.479 1.194 6.304-1.546 11.374-4.752 11.982-2.021.376-3.837-.915-4.74-1.721-1.994-1.781-3.475-4.585-4.064-7.695-.588-3.108-.235-6.259.969-8.646m-5.259 25.692c3.626 3.239 8.01 4.975 12.386 4.975 1.018 0 2.035-.094 3.042-.285 10.531-1.994 17.143-13.944 14.739-26.636-2.404-12.691-12.93-21.392-23.459-19.401-5.336 1.01-9.945 4.657-12.644 10.006-2.459 4.872-3.203 10.778-2.095 16.629 1.109 5.852 3.961 11.077 8.031 14.712" fill="#533657"/>
    <path d="M268.750098 353l-4.989 32.338c-8.017-2.972-19.05-1.292-31.952 8.552-43.086 32.878-7.63 112.32 60.518 74.057 51.268-28.786 14.039-98.998-23.577-114.947" fill="#953782"/>
    <path d="M342.386465 159.777034c.839 1.791 2.971 2.563 4.762 1.724 0 0 .917-.429 2.636-1.235 1.712-.818 4.223-2.019 7.418-3.548 1.59-.778 3.351-1.64 5.267-2.578 1.915-.948 3.99-1.952 6.213-2.975 4.416-2.114 9.398-4.499 14.834-7.1 5.491-2.5 11.361-5.366 17.649-8.212 6.326-2.756 12.878-5.921 19.803-8.828 6.871-3.047 14.071-5.909 21.331-8.944 3.661-1.424 7.351-2.86 11.056-4.3 3.703-1.438 7.466-2.729 11.203-4.105 1.862-.71 3.747-1.332 5.628-1.961 1.88-.632 3.759-1.263 5.633-1.893 1.869-.657 3.76-1.196 5.637-1.768 1.876-.576 3.746-1.151 5.609-1.724 3.738-1.072 7.46-2.072 11.138-3.0370004 1.845-.438 3.679-.874 5.499-1.307.91-.22 1.817-.438 2.72-.656.906-.182 1.809-.363 2.708-.543 1.797-.374 3.579-.745 5.344-1.113 1.769-.297 3.521-.592 5.254-.883.868-.136 1.729-.317 2.586-.441.857-.113 1.709-.226 2.556-.337 1.694-.204 3.375-.493 5.023-.622 6.612-.753 12.845-.894 18.55-.656 5.7.281 10.862 1.042 15.302 2.244 4.468 1.135 8.169 2.758 11.166 4.295 2.993 1.5500004 5.258 3.0730004 6.896 4.0880004.834.523 1.457.92 1.952 1.176.467.256.708.388.708.388.553.303 1.261.224 1.733-.241.576-.568.583-1.495.015-2.071l-.112-.114s-.165-.168-.485-.493c-.31-.304-.803-.838-1.439-1.509-1.284-1.3920004-3.24-3.5080004-6.119-5.9100004-2.864-2.41-6.741-4.967-11.54-7.197-4.812-2.186-10.548-3.968-16.896-5.023-6.342-1.073-13.293-1.542-20.544-1.31-7.232.317-14.848.992-22.514 2.454-.963.168-1.93.336-2.901.506-.96.204-1.923.409-2.89.615-1.932.421-3.878.845-5.836 1.272-3.876.968-7.792 1.975-11.713 3.054-3.884 1.17-7.84 2.263-11.722 3.573-1.942.651-3.887 1.304-5.835 1.957-1.949.652-3.903 1.296-5.819 2.026-3.835 1.453-7.706 2.829-11.494 4.3420004-3.777 1.539-7.538 3.071-11.27 4.591-3.681 1.622-7.333 3.231-10.941 4.82-.899.403-1.795.805-2.688 1.206-.884.42-1.764.838-2.641 1.255-1.754.834-3.496 1.662-5.223 2.483-6.936 3.23-13.504 6.596-19.726 9.804-3.12 1.587-6.084 3.255-8.988 4.801-2.892 1.568-5.7 3.054-8.363 4.541-5.294 3.048-10.146 5.843-14.447 8.319-2.149 1.25-4.124 2.448-5.936 3.57-1.819 1.115-3.49 2.14-5 3.065-3.003 1.879-5.362 3.355-6.971 4.361-1.602 1.02-2.456 1.564-2.456 1.564-1.497.952-2.092 2.891-1.32 4.54m-11.156 12.357c-1.038 4.204 1.528 8.454 5.732 9.493 0 0 .313.077.919.227.475.125 1.851.434 3.185.671 2.75.501 6.752 1.008 11.685 1.032 4.937.052 10.796-.318 17.334-1.208 6.545-.864 13.755-2.321 21.469-4.235 7.715-1.906 15.913-4.356 24.46-7.185 8.552-2.817 17.423-6.117 26.506-9.692 9.088-3.567 18.348-7.523 27.685-11.665 2.328-1.046 4.666-2.096 7.011-3.149 2.317-1.056 4.641-2.115 6.97-3.176l1.758-.787 1.688-.72c1.114-.484 2.266-.95 3.425-1.412 2.31-.932 4.648-1.794 6.998-2.624 9.407-3.29 19.12-5.711 28.785-7.063 9.653-1.333 19.318-1.569 28.316-.121 8.967 1.399 17.333 4.577 23.331 9.87 1.484 1.325 2.837 2.749 4.023 4.272 1.161 1.54 2.179 3.155 3.024 4.839 1.639 3.389 2.674 6.988 3.094 10.574.876 7.19-.107 14.091-1.532 20.022-1.469 5.95-3.379 11.022-5.1 15.129-.843 2.064-1.7 3.867-2.407 5.453-.76 1.563-1.382 2.906-1.929 3.975-1.098 2.137-1.684 3.277-1.684 3.277l-.012.024c-.219.429-.076.962.34 1.221.44.273 1.017.138 1.29-.302 0 0 .685-1.101 1.967-3.167 1.251-2.085 3.102-5.145 5.156-9.221 2.052-4.073 4.384-9.136 6.364-15.268.98-3.068 1.838-6.414 2.445-10.03.6-3.615.918-7.52.652-11.636-.232-4.111-1.159-8.436-2.899-12.662-.895-2.103-2.015-4.16-3.33-6.138-1.335-1.967-2.904-3.809-4.633-5.528-3.485-3.413-7.667-6.224-12.196-8.367-4.526-2.17-9.391-3.705-14.388-4.775-10.019-2.102-20.543-2.317-31.024-1.383-10.495.948-20.968 3.175-31.154 6.255-2.543.783-5.076 1.602-7.58 2.494-1.25.44-2.503.888-3.768 1.377l-1.888.717-1.788.715c-2.386.966-4.767 1.931-7.142 2.892-2.357.939-4.708 1.875-7.049 2.808-9.375 3.696-18.659 7.145-27.661 10.362-9.007 3.208-17.777 6.062-26.107 8.601-8.333 2.527-16.263 4.622-23.579 6.318-7.32 1.673-14.045 2.881-19.952 3.648-5.912.762-11.01 1.032-15.089.959-4.086-.072-7.141-.434-9.142-.786-1.043-.188-1.478-.267-2.213-.448-.607-.145-.92-.221-.92-.221-4.186-1.003-8.412 1.558-9.446 5.744m63.8 34.226s.887-.196 2.55-.563c.845-.177 1.842-.405 2.997-.684 1.158-.264 2.499-.597 4.009-.992 3.01-.777 6.661-1.737 10.806-3.021 4.142-1.286 8.806-2.777 13.856-4.568 5.05-1.79 10.485-3.864 16.252-6.087 5.762-2.234 11.82-4.7 18.135-7.244 12.644-5.017 26.312-10.427 40.668-14.528 7.116-2.029 14.228-3.802 21.367-5.399 7.161-1.539 14.29-2.855 21.72-3.344 1.857-.122 3.763-.137 5.718-.059 1.96.09 3.982.284 6.163.798 2.166.548 4.573 1.317 6.964 3.198 1.176.898 2.284 2.129 3.109 3.478.852 1.354 1.375 2.826 1.673 4.187.323 1.393.362 2.629.368 3.826-.047 1.15-.166 2.238-.35 3.228-.369 1.991-.887 3.726-1.485 5.333-1.217 3.182-2.609 5.908-4.056 8.41-2.889 4.989-5.87 9.123-8.649 12.685-2.777 3.555-5.339 6.516-7.515 8.904-2.183 2.384-3.979 4.192-5.238 5.402-1.255 1.213-1.959 1.836-1.959 1.836-.434.385-1.098.345-1.483-.09-.257-.289-.324-.682-.212-1.025 0 0 1.174-3.575 3.701-9.473 1.263-2.946 2.861-6.475 4.707-10.456 1.822-3.985 3.988-8.409 6.005-13.136.991-2.359 1.983-4.789 2.684-7.154.338-1.171.637-2.315.763-3.313.144-1.001.087-1.817-.004-2.106-.045-.154-.06-.185-.07-.158-.009.014.034.026-.074-.032-.122-.127-.859-.451-1.856-.663-2.061-.448-5.032-.472-8.06-.251-6.15.438-12.879 1.72-19.666 3.206-6.808 1.484-13.765 3.276-20.633 5.113-6.798 1.865-13.566 4.053-20.24 6.318-6.665 2.292-13.245 4.638-19.641 6.945-6.406 2.275-12.646 4.461-18.609 6.468-5.953 2.033-11.674 3.775-16.996 5.274-5.322 1.501-10.249 2.762-14.665 3.696-4.409.954-8.282 1.682-11.493 2.161-1.599.248-3.04.454-4.312.61-1.269.168-2.336.308-3.173.384-1.695.169-2.599.259-2.599.259-2.055.205-3.887-1.295-4.092-3.35-.191-1.907 1.088-3.622 2.915-4.023M314.620332 187.904141s-.048.43-.138 1.236c-.093.775-.246 1.864-.458 3.241-.437 2.742-1.142 6.598-2.238 11.15-.563 2.273-1.186 4.728-1.959 7.294-.746 2.572-1.637 5.257-2.613 8.011-1.014 2.746-2.09 5.569-3.354 8.378-1.219 2.822-2.627 5.625-4.09 8.392-1.517 2.747-3.106 5.453-4.843 8.019-.87 1.281-1.723 2.554-2.659 3.756-.456.607-.91 1.21-1.36 1.808-.479.579-.955 1.154-1.426 1.723-.477.566-.931 1.138-1.414 1.68-.493.535-.982 1.064-1.465 1.587-.944 1.063-1.949 2.034-2.93 2.971-.492.468-.959.944-1.451 1.382-.5.43-.993.854-1.478 1.27-.484.415-.96.822-1.427 1.222-.479.387-.972.742-1.441 1.102-1.854 1.47-3.694 2.628-5.299 3.674-1.642.992-3.118 1.78-4.316 2.445-2.482 1.166-3.901 1.832-3.901 1.832-1.529.719-3.351.062-4.069-1.467-.671-1.428-.143-3.111 1.174-3.913l.217-.13s1.203-.727 3.309-2c1.006-.709 2.241-1.542 3.6-2.567 1.323-1.081 2.835-2.26 4.332-3.731.38-.359.779-.711 1.164-1.095.375-.397.756-.8 1.143-1.211.388-.409.781-.824 1.181-1.246.392-.43.76-.898 1.149-1.353.776-.913 1.568-1.85 2.302-2.88.376-.504.757-1.013 1.142-1.526.375-.521.723-1.074 1.091-1.615.363-.544.729-1.092 1.098-1.645.342-.572.687-1.148 1.034-1.727.715-1.14 1.353-2.356 2.005-3.569 1.302-2.43 2.464-4.992 3.561-7.577 1.047-2.614 2.046-5.243 2.875-7.897.872-2.634 1.575-5.286 2.231-7.85.619-2.579 1.171-5.082 1.602-7.476.457-2.387.786-4.664 1.081-6.761.557-4.201.825-7.711.956-10.133.058-1.206.092-2.151.1-2.764.003-.582.005-.893.005-.893v-.084c.026-4.425 3.634-7.993 8.059-7.967 4.426.025 7.993 3.633 7.968 8.059-.002.282-.02.57-.05.845M278.54025 401.120183c-.494-3.846-4.013-6.564-7.859-6.069-3.847.494-6.564 4.013-6.07 7.859 0 0 .028.214.079.614.026.2.058.447.095.738.029.251.105.735.087.821-.006.354.113.702.039 1.468-.003.348-.018.722-.097 1.115-.062.395-.091.821-.226 1.256-.111.439-.198.909-.39 1.38-.082.241-.165.485-.249.734-.095.247-.22.491-.329.746-.423 1.025-1.063 2.064-1.768 3.135-.756 1.04-1.598 2.117-2.605 3.097-.975 1.014-2.099 1.929-3.267 2.782-1.175.852-2.434 1.556-3.698 2.181-1.272.58-2.552 1.022-3.78 1.311-1.218.25-2.356.319-3.33.228-.995-.074-1.711-.399-2.333-.769-.645-.348-1.041-.949-1.443-1.502-.157-.328-.304-.635-.441-.919-.118-.309-.184-.629-.274-.901-.043-.14-.083-.271-.121-.396-.02-.135-.038-.262-.055-.38-.036-.238-.067-.441-.092-.605-.053-.331-.081-.507-.081-.507l-.061-.381c-.2-1.256-1.277-2.224-2.592-2.244-1.473-.024-2.685 1.152-2.708 2.625 0 0-.004.252-.012.724-.002.238-.005.532-.008.876 0 .173 0 .36-.001.558.023.205.047.423.073.653.062.462.099.972.213 1.537.153.568.305 1.188.526 1.847.546 1.29 1.301 2.834 2.699 4.102 1.335 1.272 3.139 2.348 5.05 2.857 1.91.544 3.915.721 5.901.64 1.968-.118 3.933-.467 5.856-.997 1.898-.569 3.785-1.271 5.571-2.166 1.783-.897 3.52-1.909 5.116-3.094 1.624-1.147 3.099-2.475 4.471-3.848 1.333-1.417 2.576-2.875 3.578-4.438.254-.388.515-.762.748-1.152.221-.401.439-.795.653-1.182.447-.765.784-1.571 1.119-2.341.356-.759.594-1.542.837-2.28.261-.734.436-1.456.579-2.146.34-1.292.464-2.776.557-3.921.058-.665.042-.851.058-1.183.008-.292.015-.541.021-.743.012-.404.018-.619.018-.619.008-.349-.008-.744-.054-1.101m32.631 23.539c-.104 2.788-.492 5.607-1.038 8.398-1.131 5.581-3.159 11.049-5.984 15.968-2.784 4.949-6.352 9.327-10.269 13.075-3.956 3.716-8.272 6.809-12.73 9.212-2.219 1.218-4.478 2.257-6.736 3.139-2.253.893-4.509 1.625-6.743 2.192-2.227.584-4.43 1.01-6.581 1.282-2.146.296-4.245.416-6.258.429-4.029.016-7.73-.478-10.913-1.329-3.187-.832-5.848-1.977-7.922-3.109-1.049-.543-1.924-1.142-2.697-1.629-.746-.535-1.377-.99-1.872-1.378-.963-.811-1.476-1.244-1.476-1.244-1.131-.953-1.275-2.641-.322-3.772.879-1.044 2.386-1.247 3.502-.522l.18.117s.464.3 1.334.864c.444.264 1.007.568 1.659.928.682.311 1.439.71 2.344 1.039 1.784.701 4.035 1.351 6.688 1.699 2.647.366 5.701.389 8.989-.037 1.642-.218 3.345-.528 5.077-.995 1.734-.442 3.5-1.02 5.268-1.73 1.772-.692 3.546-1.525 5.293-2.486 1.751-.95 3.481-2.024 5.147-3.234 3.353-2.386 6.461-5.29 9.148-8.532 2.649-3.274 4.887-6.885 6.431-10.707 1.585-3.803 2.485-7.79 2.772-11.719.122-1.968.154-3.919-.03-5.847-.039-.96-.222-1.918-.319-2.861-.192-.945-.293-1.88-.538-2.803-.849-3.838-2.191-7.447-3.787-10.774l.253.084s-6.669-11.179-4.905-16.989c2.797-9.212.218-14.519-9.595-28.011-3.326 6.852-4.601 13.951-4.889 20.196-.189-.182-.294-.284-.294-.284-4.915-4.762-5.039-12.606-.277-17.521 4.762-4.914 12.606-5.038 17.521-.277.355.344.684.703.989 1.076l.047.061s.383.476 1.103 1.37c.359.447.803.999 1.324 1.647.573.743 1.232 1.596 1.971 2.552.369.487.758 1 1.167 1.537.378.533.774 1.091 1.187 1.672.41.582.837 1.187 1.281 1.815.425.646.866 1.316 1.321 2.008 1.822 2.758 3.749 6 5.636 9.685 1.886 3.683 3.725 7.834 5.223 12.448 1.498 4.608 2.646 9.685 3.14 15.061.16 1.334.167 2.713.246 4.077-.015 1.382.039 2.76-.066 4.159" fill="#CE50B6"/>
    <path d="M601.958 164.986969c-.189 1.018-.453 1.94-.771 2.693l-.246.534-.441.793-1.055 1.918c-1.343 2.415-2.765 4.843-4.241 7.249-2.96 4.798-6.122 9.496-9.47 14.074-6.691 9.16-14.066 17.876-21.97 26.086-3.952 4.105-8.043 8.079-12.26 11.912-4.215 3.835-8.571 7.508-13.024 11.048-8.927 7.042-18.36 13.452-28.324 18.69-.319.167-.638.334-.958.499-1.381.712-2.613-1.167-1.423-2.166.028-.023.055-.046.082-.069 7.766-6.538 15.198-13.517 22.122-21.064 6.915-7.548 13.343-15.665 18.824-24.565 5.325-8.673 9.76-18.153 12.314-28.42.215-.5.419-1.071.582-1.874l.082-.451.057-.555c.025-.388.05-.703.014-1.173-.034-.448-.077-.859-.185-1.325-.113-.471-.258-.94-.445-1.385-.196-.445-.429-.881-.69-1.29-.252-.371-.532-.725-.831-1.057-.549-.588-1.175-1.088-1.671-1.396-.574-.377-.967-.548-1.452-.773-.376-.15-.843-.33-1.159-.414-1.412-.409-2.425-.503-3.368-.58-.935-.066-1.765-.071-2.553-.051-3.132.091-5.813.471-8.497.884-5.315.855-10.381 1.965-15.423 3.134-1.232.288-2.453.593-3.679.89-11.555 1.935-26.52 5.779-45.568 11.974 0 0-.028.088-.076.239-13.075 3.651-26.103 7.3-39.119 10.668-4.869 1.25-9.735 2.456-14.567 3.54-4.804 1.067-9.692 2.075-14.117 2.582-1.093.12-2.134.204-2.998.2l-.952.01c-.319.003-.478-.017-.725-.023l-.687-.024-.778-.055c-2.075-.152-4.183-.475-6.3-.965-4.236-.972-8.494-2.535-12.666-4.484-8.355-3.927-16.355-9.314-23.898-15.33-3.774-3.017-7.441-6.209-10.987-9.532-1.407-1.318-2.787-2.662-4.151-4.018 1.671-1.587 3.357-3.164 5.068-4.723 3.86-3.532 7.803-6.993 11.813-10.376 8.018-6.77 16.312-13.224 24.826-19.345 8.498-6.144 17.236-11.937 26.193-17.326 8.961-5.38 18.149-10.346 27.557-14.774 4.708-2.204 9.457-4.309 14.268-6.232 4.81-1.925 9.656-3.741 14.553-5.379 4.903-1.614 9.848-3.071 14.829-4.359 4.986-1.257 10.009-2.321 15.055-3.205 5.049-.863 10.124-1.485 15.208-1.925 5.085-.422 10.177-.563 15.262-.522 5.085.064 10.152.432 15.196.981 4.847.568 9.653 1.412 14.423 2.425 3.887 1.561 7.847 4.27 11.489 7.553 3.842 3.435 7.382 7.5 10.636 11.827 3.255 4.337 6.203 8.988 8.86 13.805 2.652 4.821 5.016 9.82 7.006 14.926 1.982 5.103 3.628 10.324 4.674 15.506.532 2.588.885 5.16 1.048 7.647.144 2.473.075 4.881-.316 6.918m-127.986 143.19c-2.241 13.194-9.569 23.676-18.055 35.813-9.144 13.077-19.507 27.899-26.086 49.447-2.545 8.335-11.105 14.759-21.809 16.365-29.608 4.445-59.72 1.788-83.412-6.692-.19-.724-.39-1.441-.599-2.151-3.373-11.377-8.952-20.813-15.072-28.162-6.13-7.371-12.812-12.694-18.814-16.307-6.009-3.64-11.323-5.552-14.973-6.642-.386-.115-.767-.223-1.139-.326-.931-2.273-1.967-4.602-3.127-6.994-.205-.423-.447-.814-.706-1.189-4.947-14.098-9.304-32.366-10.752-54.945 29.961-8.103 51.995-29.249 63.952-61.521 5.91-15.95 8.027-31.045 8.782-40.278 1.43 1.361 2.871 2.707 4.336 4.025 3.939 3.545 8.01 6.947 12.238 10.19 4.226 3.245 8.617 6.321 13.207 9.175 4.593 2.849 9.386 5.48 14.462 7.731 5.075 2.244 10.436 4.123 16.133 5.31 2.844.595 5.779.994 8.774 1.152l1.124.053 1.217.018c.388.002.864.011 1.18.001l.952-.029c1.676-.041 3.167-.199 4.595-.38 5.659-.76 10.712-1.934 15.803-3.145 5.06-1.228 10.034-2.554 14.982-3.917 6.297-1.746 12.55-3.554 18.788-5.38-7.266 29.871-9.253 43.627-5.671 50.791 1.963 3.927 4.746 7.477 7.692 11.237 7.37 9.401 14.991 19.124 11.998 36.75m-167.047 125.996c-2.72 9.446-9.126 18.16-18.485 24.562-9.629 6.536-21.121 11.38-32.656 11.758-5.754.21-11.496-.664-16.769-2.731-5.263-2.072-10.05-5.3-13.863-9.435-3.829-4.12-6.662-9.123-8.234-14.499-1.558-5.382-1.817-11.143-.675-16.721 1.118-5.578 3.508-10.99 6.897-15.803 1.694-2.405 3.58-4.706 5.672-6.823 1.068-1.041 2.121-2.091 3.255-3.066.551-.502 1.112-.993 1.699-1.459l.866-.71.432-.356.107-.088c.117-.091-.038.023.024-.023l.245-.182c.64-.469 1.337-1.007 1.925-1.417.578-.389 1.117-.787 1.718-1.172 1.204-.781 2.411-1.525 3.622-2.166 2.408-1.323 4.875-2.252 7.149-2.747 2.285-.524 4.358-.485 6.014-.022 1.663.46 2.98 1.305 4.144 2.587 1.155 1.283 2.09 3.02 2.758 4.969.665 1.957 1.024 4.121 1.149 6.301.261 4.379-.52 8.799-1.906 12.656-.709 1.929-1.584 3.726-2.577 5.362-1.023 1.615-2.143 3.086-3.385 4.357-1.246 1.266-2.582 2.349-3.978 3.296l-.261.179-.13.089-.065.045c-.05.031.222-.11.063-.026l-.706.386-.306.163-.442.204c-.587.258-1.163.46-1.735.592-1.142.259-2.259.292-3.331.123-1.067-.182-2.081-.57-2.956-1.106-1.765-1.088-2.878-2.667-3.265-4.207-.424-1.544-.148-3.234.579-4.76.719-1.526 1.766-2.856 2.739-3.853.986-.993 1.846-1.75 2.449-2.229.612-.485.928-.735.928-.735l.082-.065c.865-.687 1.278-1.852.953-2.98-.431-1.49-1.988-2.35-3.478-1.92 0 0-.457.132-1.337.439-.87.331-2.19.807-3.836 1.737-1.639.925-3.69 2.253-5.701 4.594-.995 1.17-1.954 2.622-2.701 4.387-.723 1.766-1.226 3.859-1.207 6.118-.021 4.529 2.097 9.487 6.061 13.005 1.969 1.77 4.38 3.23 7.124 4.122 2.732.911 5.79 1.256 8.841.913 1.524-.166 3.045-.485 4.516-.963l1.092-.387 1.21-.504.788-.357 1.074-.534c2.519-1.263 4.954-2.919 7.171-4.906 4.434-3.985 8.006-9.216 10.257-15.106 2.268-5.893 3.294-12.434 2.747-19.272-.277-3.418-1.03-6.919-2.371-10.407-.395-1.01-.853-2.02-1.368-3.022.028-.046.063-.086.09-.133 3.065-5.217 4.365-11.432 3.947-18.576.337.193.67.38 1.015.589 4.393 2.657 9.432 6.661 14.135 12.336 4.676 5.658 9.026 13.005 11.642 21.634 2.591 8.587 3.338 18.517.545 27.965m-148.109-173.253c4.088-7.471 10.35-12.345 17.63-13.724 1.421-.269 2.841-.399 4.255-.399 14.127 0 27.471 13.037 30.897 31.125 3.768 19.9-5.868 38.495-21.483 41.453-7.28 1.377-14.89-.869-21.427-6.327-6.973-5.822-11.847-14.488-13.724-24.401-1.877-9.912-.51-19.759 3.852-27.727m-13.272 69.11c-13.285-20.718-22.581-43.539-27.596-67.409l20.837 16.807c-.04 3.989.311 8.038 1.076 12.08 2.539 13.401 9.277 25.241 18.976 33.338 8.1 6.764 17.471 10.305 26.975 10.305 2.385 0 4.78-.223 7.164-.675 23.941-4.534 39.07-31.187 33.724-59.414v-.001c-5.346-28.226-29.172-47.501-53.114-42.967-7.719 1.461-14.649 5.2-20.301 10.807l-39.673-23.195c.221-43.224 14.202-84.509 39.92-118.996 7.153 1.278 21.105 4.909 36.115 15.012 28.671 19.297 47.733 52.018 56.672 97.267-12.496 68.376-1.042 116.345 10.834 144.624.957 2.28 1.936 4.445 2.922 6.55 1.541 5.48 1.976 10.119 1.255 13.623-.742-.239-1.49-.453-2.248-.608-4.327-.916-8.614-.561-12.411.382-3.839.933-7.255 2.505-10.474 4.216-1.613.862-3.144 1.808-4.647 2.788-.756.488-1.525 1.046-2.286 1.571-.738.523-1.326.981-1.998 1.477l-.593.451-.522.41-1.045.822c-.705.539-1.39 1.112-2.066 1.701-1.378 1.141-2.693 2.387-4.015 3.632-.852.84-1.688 1.709-2.514 2.592-28.687-16.251-53.056-39.257-70.967-67.19m28.26-252.667c3.228-3.209 6.548-6.286 9.94-9.25 7.38 1.158 26.212 5.179 46.306 17.897 31.665 20.041 52.615 51.961 62.395 94.961-13.357 7.188-23.747 13.38-30.842 17.807-8.198-33.574-25.673-74.12-62.898-98.65-12.089-7.966-23.558-12.429-32.396-14.925 2.421-2.666 4.919-5.279 7.495-7.84m139.781 111.831c-1.004 7.911-3.023 18.465-7.083 29.425-9.38 25.316-25.359 41.803-47.569 49.14.145-15.092 1.579-31.77 4.845-50.087 6.944-4.549 24.3-15.466 49.807-28.478m2.784-171.194c.404 0 .812.002 1.217.004 5.958.036 11.87.338 17.727.886 4.27 1.057 8.756 2.406 13.408 4.028 1.315.507 2.649 1.021 3.998 1.542.674.261 1.352.524 2.034.789.668.298 1.34.596 2.015.897 1.348.607 2.723 1.193 4.089 1.829 1.345.681 2.703 1.367 4.072 2.06 1.385.661 2.72 1.441 4.068 2.22 1.343.787 2.726 1.526 4.062 2.361 2.624 1.749 5.381 3.362 7.925 5.334 1.292.956 2.609 1.886 3.894 2.867 1.248 1.03 2.499 2.064 3.752 3.099l1.883 1.55 1.794 1.663 3.583 3.333c1.195 1.11 2.27 2.35 3.41 3.515 1.112 1.195 2.277 2.333 3.343 3.565 1.048 1.247 2.094 2.491 3.137 3.732 1.035 1.247 2.118 2.445 3.042 3.772.96 1.295 1.916 2.585 2.868 3.868.476.641.951 1.28 1.425 1.918.459.648.873 1.329 1.31 1.988.864 1.327 1.722 2.646 2.575 3.956.426.654.851 1.305 1.275 1.954.42.651.775 1.344 1.164 2.009.762 1.34 1.517 2.67 2.266 3.987.374.658.747 1.312 1.118 1.964.38.645.739 1.299 1.054 1.976.263.535.521 1.057.782 1.587-17.308 8.642-33.741 18.804-49.351 30.005-8.892 6.436-17.527 13.203-25.885 20.307-4.18 3.552-8.296 7.18-12.336 10.912-2.015 1.872-4.013 3.767-5.993 5.696l-2.96 2.925c-.615.619-1.204 1.216-1.815 1.846-2.942 1.382-5.813 2.752-8.602 4.107l-.001-.001c-.192.094-.376.185-.568.279-2.835 1.381-5.588 2.744-8.259 4.088-14.225-56.737-45.346-86.736-70.037-102.136-13.629-8.499-26.639-13.513-36.791-16.458 33.598-23.294 73.101-35.823 114.308-35.823m143.511 59.512c-4.215 1.417-8.391 2.933-12.521 4.555-2.6 1.027-5.178 2.102-7.738 3.212-.424-.808-.846-1.609-1.276-2.428-.363-.725-.774-1.432-1.208-2.132-.425-.705-.851-1.414-1.28-2.126-.858-1.422-1.725-2.858-2.599-4.306-.446-.718-.856-1.461-1.337-2.167-.484-.705-.97-1.412-1.457-2.122-.977-1.417-1.96-2.845-2.949-4.282-.501-.714-.978-1.446-1.504-2.15-.541-.693-1.083-1.388-1.627-2.084-1.089-1.392-2.184-2.79-3.282-4.194-1.063-1.43-2.295-2.741-3.479-4.093-1.193-1.345-2.389-2.694-3.588-4.045-1.218-1.333-2.544-2.577-3.814-3.869-1.301-1.265-2.533-2.599-3.893-3.804l-4.083-3.61-1.922-1.684c22.148 10.075 42.334 24.08 59.557 41.329m-433.703 117.388c-5.857 0-10.806-6.783-10.806-14.813 0-8.03 4.949-14.813 10.806-14.813 5.858 0 10.807 6.783 10.807 14.813 0 8.03-4.949 14.813-10.807 14.813m590.785-37.54c-.145-3.343-.538-6.576-1.113-9.719-1.14-6.293-2.912-12.284-5.032-18.109-2.132-5.819-4.655-11.452-7.518-16.923-2.87-5.466-6.076-10.773-9.725-15.855-3.659-5.074-7.706-9.963-12.476-14.423-2.384-2.228-4.938-4.357-7.763-6.285-2.808-1.937-5.903-3.668-9.312-5.04l-.51-.205-.615-.141c-5.519-1.263-11.089-2.311-16.703-3.036-5.616-.683-11.258-1.155-16.905-1.293-5.644-.116-11.29-.021-16.907.377-5.613.417-11.205 1.039-16.746 1.919-5.468.89-10.895 1.974-16.266 3.257C438.568 27.222969 380.365.37896904 317.693.00396904c-58.744-.351-114.323 22.58899996-156.579 64.59299996-39.502 39.267-62.405 90.302-65.215 144.753l-43.746-25.576c.128-1.21.202-2.438.202-3.687 0-16.643-11.743-30.184-26.178-30.184-14.434 0-26.177 13.541-26.177 30.184 0 16.644 11.743 30.184 26.177 30.184 6.67 0 12.762-2.895 17.389-7.647l53.448 43.111c3.781 33.443 15.125 65.546 33.377 94.011 19.15 29.865 45.085 54.553 75.595 72.187-1.911 3.681-3.477 7.611-4.521 11.767-2.006 7.738-2.137 16.157-.249 24.186 1.911 8.019 5.853 15.604 11.37 21.772 5.453 6.242 12.481 10.997 20.048 14.088 7.592 3.08 15.756 4.381 23.662 4.178 7.919-.205 15.591-1.835 22.636-4.426 3.523-1.297 6.942-2.766 10.176-4.459.809-.389 1.655-.882 2.48-1.33.818-.454 1.707-.934 2.357-1.339l2.108-1.265.414-.257.29-.188.58-.378 1.156-.755c6.115-4.108 11.671-9.151 16.133-14.994 4.471-5.83 7.769-12.439 9.776-19.172 1.655-5.521 2.446-11.103 2.577-16.507 15.898 4.667 33.66 7.117 52.108 7.116 10.387 0 20.999-.776 31.606-2.368 17.525-2.629 31.795-13.976 36.353-28.909 5.748-18.824 14.834-31.82 23.622-44.389 9.325-13.335 18.132-25.932 21.05-43.114 1.92-11.31.876-21.539-3.194-31.269-.123-.294-.26-.571-.388-.858 3.387-.68 6.712-1.558 9.965-2.587 5.846-1.862 11.473-4.206 16.916-6.851 10.889-5.296 21.06-11.765 30.692-18.882 9.62-7.14 18.649-15.014 27.165-23.407 8.505-8.405 16.48-17.36 23.807-26.88 3.665-4.758 7.154-9.669 10.452-14.729 1.641-2.531 3.237-5.102 4.798-7.752l1.098-1.894.641-1.111c.258-.477.478-.954.71-1.436.864-1.917 1.422-3.815 1.811-5.655.774-3.691.886-7.165.771-10.519" fill="#533657"/>
    <path d="M494.173598 242.579c.923-.686 1.936-1.416 2.99-2.232 2.118-1.623 4.453-3.534 6.908-5.738 4.915-4.397 10.3-9.993 15.329-16.67 5.046-6.66 9.7-14.413 13.185-22.9.942-2.289 1.772-4.642 2.495-7.039-1.957.453-3.921.927-5.884 1.419-2.395.605-4.794 1.231-7.193 1.873-.005.019-.009.037-.014.056-2.172 7.736-5.631 15.261-9.493 21.993-1.937 3.368-4.016 6.521-6.104 9.441-2.082 2.925-4.188 5.61-6.239 8.004-2.056 2.389-4.002 4.543-5.807 6.382-1.799 1.844-3.436 3.393-4.789 4.664-1.358 1.241-2.446 2.22-3.226 2.873-.765.657-1.173 1.008-1.173 1.008-.432.371-.542 1.013-.231 1.512.342.551 1.067.72 1.618.377 0 0 .457-.284 1.314-.816.858-.517 2.11-1.335 3.715-2.401.785-.545 1.653-1.149 2.599-1.806m-13.741-20.752c-.512-.561-.565-1.381-.183-1.996 0 0 1.143-1.839 3.214-5 .959-1.591 2.06-3.493 3.321-5.685.597-1.123 1.232-2.318 1.901-3.577.7-1.236 1.234-2.642 1.925-4.024.239-.472.451-.973.668-1.47 2.935-.869 5.871-1.743 8.806-2.599.847-.246 1.693-.489 2.539-.735-.325.624-.651 1.248-.97 1.858-.438.838-.953 1.615-1.413 2.402-.938 1.565-1.85 3.066-2.843 4.426-.484.686-.958 1.357-1.421 2.014-.459.658-.922 1.288-1.412 1.874-.952 1.185-1.855 2.308-2.703 3.364-.852 1.052-1.77 1.967-2.554 2.839-.802.858-1.525 1.671-2.195 2.348-2.734 2.61-4.335 4.069-4.335 4.069-.677.618-1.727.569-2.345-.108" fill="#953782"/>
    <path d="M442.873 316s-4.612 20.077-6.078 21.273c-1.527 1.246-35.346 17.564-66.795 20.271" fill="#FDFADD"/>
    <path d="M351 372.755932s33.98 35.225 63.55 11.707c-2.513-9.31-3.663-13.023-3.663-13.023s-23.572-11.38-30.874-1.221c-14.513-4.219-29.013 2.537-29.013 2.537" fill="#F23580"/>
    <path d="M438.170378 323.877387c-3.973 1.122-8.679 2.797-14.437 5.415-.629.304-1.261.61-1.904.927-3.168 1.587-6.498 3.338-9.946 5.213-6.906 3.731-14.273 7.925-21.965 11.725-2.675 1.338-5.398 2.613-8.144 3.808 28.416-2.96 50.489-16.441 54.97-19.359.399-1.437.922-4.364 1.426-7.729m-30.151 58.155c-8.507-14.114-21.472-8.781-22.042-8.535-.093.039-.188.057-.283.088.129.116.266.242.389.35.598.497 1.013 1.036 1.401 1.43.749.813 1.177 1.278 1.177 1.278.528.573.491 1.466-.082 1.994-.535.492-1.347.493-1.882.027l-.107-.094s-.435-.381-1.195-1.049c-.39-.319-.81-.77-1.395-1.156-.572-.4-1.19-.887-1.904-1.352-.746-.412-1.509-.931-2.382-1.345-.886-.388-1.78-.874-2.786-1.165-.498-.156-.984-.369-1.504-.488-.518-.121-1.043-.243-1.571-.367-.522-.143-1.075-.157-1.611-.245-.538-.082-1.079-.146-1.626-.14-.545-.004-1.086-.06-1.625-.029-.537.036-1.072.071-1.603.106-.529.042-1.046.163-1.557.235-.514.062-1.01.188-1.494.325-.98.215-1.88.573-2.734.884-.428.154-.815.378-1.204.551-.383.187-.765.34-1.094.56-.272.168-.54.324-.796.475 1.757 1.485 3.533 2.917 5.336 4.272 1.803 1.363 3.648 2.628 5.488 3.833 3.693 2.384 7.522 4.359 11.417 5.574 1.949.598 3.9 1.039 5.851 1.282 1.951.245 3.901.244 5.838.057 1.939-.179 3.869-.573 5.774-1.169.953-.299 1.899-.648 2.837-1.04l.177-.071.089-.035.022-.009c-.218.098-.046.02-.088.039l.051-.022.409-.183.41-.182.204-.091.133-.069.537-.265.587-.323c1.565-.88 2.816-1.918 3.826-3.126.219-.255.418-.53.612-.81m59.076-75.914c-.035 4.844-2.072 12.632-11.295 14.525-2.507.515-5.124.763-8.245 1.232-1.843 14.129-3.205 15.248-4.42 16.24-.147.119-9.307 6.633-24.105 12.61-.204.559-.398 1.119-.582 1.68-.354 1.106-.677 2.21-.969 3.313-.284 1.106-.514 2.214-.703 3.318-.177 1.105-.301 2.206-.377 3.297l-.057 1.628.035 1.606.115 1.579c.075.517.126 1.037.208 1.548.108.503.191 1.012.307 1.51.142.489.257.985.407 1.467l.497 1.425.591 1.378.687 1.329.782 1.277 1.276 2.086-.66 2.456c-.77 2.868-2.079 5.805-4.027 8.358-1.914 2.58-4.414 4.636-6.966 6.172l-.968.565-1.056.555-.266.136-.202.097-.404.193-.404.192-.338.149-.238.1c-1.26.54-2.552 1.032-3.875 1.46-2.645.856-5.414 1.456-8.23 1.743-5.643.57-11.398-.204-16.57-1.981-5.198-1.761-9.863-4.356-14.126-7.243-2.142-1.436-4.137-3.019-6.081-4.619-1.939-1.607-3.803-3.264-5.614-4.947-3.641-3.347-6.98-6.895-10.287-10.365-3.32-3.454-6.469-6.99-9.759-10.203-1.626-1.618-3.267-3.188-4.96-4.568-.848-.693-1.689-1.362-2.55-1.946-.42-.3-.88-.579-1.273-.821-.202-.113-.355-.226-.595-.355l-.803-.404c-.09-.046-.165-.107-.25-.159-.036.025-.074.051-.111.075-.378.298-.751.592-1.118.881-.365.292-.732.566-1.071.859-.32.314-.633.621-.938.92-.612.592-1.191 1.146-1.65 1.729-.483.558-.913 1.079-1.28 1.548-.329.497-.616.931-.852 1.288-.468.713-.72 1.124-.72 1.124-.413.673-1.294.883-1.967.47-.4-.245-.636-.656-.676-1.089l-.116-1.367s-.015-.176-.008-.487c.022-.3.004-.785.095-1.334.077-.56.161-1.267.35-2.031.215-.737.52-1.539.898-2.406.192-.429.399-.884.651-1.311.249-.432.544-.846.834-1.294.289-.449.631-.866.963-1.319.346-.428.748-.81 1.14-1.225.786-.837 1.671-1.607 2.643-2.27.488-.326.947-.729 1.473-.997l1.559-.857c1.062-.542 2.161-.95 3.262-1.317.544-.198 1.105-.32 1.66-.441.554-.117 1.088-.27 1.643-.318 1.093-.145 2.154-.239 3.175-.213.514.022 1.003.019 1.486.066.487.062.949.106 1.398.182 1.791.287 3.288.823 4.33 1.322.508.211.931.484 1.213.632.284.161.414.278.414.278l.668.601c.307.277.332.749.056 1.056-.135.151-.32.234-.508.246 0 0-.124.008-.358.023-.223.016-.56.036-.996.097-.864.117-2.115.277-3.582.637-1.469.348-3.175.811-4.946 1.472-.464.18-.942.386-1.417.588.625.331 1.233.678 1.823 1.039.775.214 1.618.447 2.538.702.993.265 2.138.431 3.32.678 1.182.278 2.474.367 3.822.53 1.344.202 2.778.207 4.266.265.372.014.748.028 1.128.041.38.002.765-.026 1.153-.038.775-.029 1.565-.06 2.369-.09.803-.005 1.618-.156 2.446-.227.827-.103 1.669-.15 2.516-.3 1.693-.315 3.439-.546 5.197-1.014.879-.22 1.776-.393 2.667-.656.89-.262 1.79-.526 2.696-.793 3.608-1.154 7.301-2.51 10.968-4.184 3.678-1.634 7.36-3.47 10.998-5.448 7.29-3.913 14.431-8.304 21.288-12.318.22-.13.438-.255.657-.384 20.314-13.507 41.855-22.746 58.901-21.234m2.889-71.22c-.192-1.225-1.341-2.063-2.566-1.871l-2.283.357-2.287.308c-1.524.195-3.047.431-4.574.593l-.184.02c-.757.08-1.394.66-1.514 1.447-.281 1.83-.621 3.65-1.046 5.449-.406 1.805-.987 3.558-1.645 5.272-.657 1.714-1.486 3.353-2.437 4.888-.948 1.537-2.1 2.936-3.429 4.052-.667.549-1.366 1.055-2.126 1.403-.754.36-1.542.598-2.337.702-.794.094-1.6.08-2.375-.128-.777-.185-1.525-.517-2.235-.927-1.408-.849-2.701-2.012-3.74-3.414-.522-.698-1.004-1.435-1.453-2.197-.473-.781-.808-1.499-1.223-2.4-.256-.548-.77-.976-1.411-1.089-1.043-.183-2.037.514-2.22 1.558l-.341 1.942c-.203 1.157-.126 2.491.011 3.687.163 1.218.449 2.44.903 3.644.444 1.216 1.069 2.398 1.872 3.585.839 1.138 1.834 2.323 3.159 3.32.661.504 1.371.998 2.169 1.43.799.415 1.661.789 2.588 1.086 1.84.636 3.936.843 5.983.73 2.06-.104 4.019-.68 5.759-1.386 1.761-.714 3.218-1.701 4.538-2.681 1.327-.984 2.375-2.113 3.341-3.194.977-1.079 1.738-2.235 2.442-3.356.717-1.115 1.279-2.262 1.769-3.399.245-.567.491-1.128.694-1.694.198-.573.37-1.141.544-1.707.352-1.123.589-2.26.784-3.386.217-1.114.297-2.252.381-3.36.064-1.114.05-2.231-.002-3.331-.026-.392-.065-.78-.102-1.169.042-.026.085-.049.127-.075.371-.224.739-.484 1.108-.723.37-.238.739-.491 1.105-.774l1.41-1.09c.625-.484.974-1.285.843-2.122m-109.857 55.758c-.249-1.418-.635-2.781-1.117-4.092-.252-.649-.502-1.311-.828-1.964-.315-.665-.629-1.186-1.013-1.786l-.97-1.513c-.468-.728-1.325-1.165-2.241-1.053-1.277.155-2.186 1.316-2.03 2.593.146 1.206.293 2.247.31 3.364.043 1.111.043 2.222-.018 3.325-.044 1.106-.179 2.202-.398 3.274-.216 1.071-.471 2.136-.859 3.147-.762 2.019-1.844 3.923-3.388 5.383-.757.741-1.619 1.367-2.544 1.886-.921.531-1.937.891-2.979 1.146-2.086.502-4.317.569-6.489.187-2.173-.369-4.317-1.037-6.327-2.004-2.002-.978-3.933-2.126-5.668-3.529-1.747-1.382-3.354-2.932-4.746-4.643-.61-.751-1.699-.949-2.542-.425l-.277.172c-.943.587-1.878 1.184-2.839 1.746l-2.865 1.711-2.865 1.71c-.957.568-1.938 1.101-2.906 1.653-1.067.613-1.701 1.846-1.487 3.131.275 1.651 1.836 2.767 3.487 2.492l1.785-.298c.609-.101 1.193-.235 1.775-.374.582-.138 1.176-.259 1.74-.423.816-.214 1.615-.453 2.409-.697.012.016.023.033.036.048.916 1.134 1.887 2.248 2.972 3.251.537.508 1.084 1.013 1.657 1.493.581.467 1.177.922 1.79 1.363 1.216.903 2.534 1.68 3.913 2.401 1.372.743 2.846 1.335 4.382 1.859 1.533.544 3.163.923 4.865 1.179.852.128 1.717.234 2.609.292.886.049 1.799.036 2.718-.004 1.838-.086 3.758-.345 5.652-.921 1.891-.558 3.804-1.32 5.536-2.429 1.733-1.086 3.364-2.367 4.669-3.876 1.327-1.483 2.419-3.084 3.212-4.735.827-1.631 1.373-3.295 1.729-4.911.38-1.609.498-3.202.537-4.718.005-1.528-.124-2.994-.387-4.411m55.79 12.205c.014-.001.104-.049.296-.138.207-.089.509-.219.894-.385.777-.32 1.885-.807 3.176-1.37 2.573-1.143 5.903-2.703 8.481-4.675.336-.238.619-.505.938-.746.284-.263.578-.521.845-.785.262-.265.54-.521.767-.798.261-.257.487-.53.698-.806.457-.533.838-1.091 1.199-1.647.353-.559.678-1.123.944-1.686.308-.551.488-1.117.729-1.621.168-.518.384-.984.518-1.387.243-.805.462-1.309.462-1.309l.074-.169c.338-.779 1.244-1.136 2.023-.798.312.135.556.362.715.634 0 0 .296.506.673 1.47.197.481.348 1.094.518 1.81.079.36.113.752.161 1.168.059.417.079.859.063 1.326.008 1.859-.465 4.14-1.621 6.276-.558 1.08-1.3 2.082-2.121 3.016-.837.915-1.755 1.762-2.733 2.483-1.944 1.468-4.068 2.514-6.079 3.231-1.005.374-1.994.632-2.929.864-.94.207-1.829.369-2.655.468-1.649.213-3.031.213-4.005.176-.488-.019-.873-.062-1.143-.085-.278-.028-.441-.052-.427-.052-1.233.127-2.336-.769-2.463-2.002-.127-1.233.769-2.336 2.002-2.463" fill="#533657"/>
  </g>
</svg>
